:SAMPLES-PER-SECOND 30
:FULLY-SPECIFIED
:DEGREES
237
root  -52.9248 39.7152 -4.25463 -2.63879 42.3556 3.45367
RightUpLeg  -16.4932 -6.07422 -12.7115
RightLeg  54.8431 -1.15314 -2.1705
RightFoot  -6.4142 -0.189393 3.38721
RightToes  2.96859e-009 0 -3.6325e-017
Spine  9.87266 -1.65714 -6.81737
Spine1  8.38956 -4.77487 6.58591
HEad  -11.5061 29.8155 -14.5217
LeftShoulder1  -0.126144 3.86281 -28.968
LeftArm  -3.20779 -0.836846 -41.7083
LeftForeArm  40.543 -77.5618 -62.6776
LeftHand  0.017614 4.3401 -5.00219
RightShoulder  -0.785769 -5.8612 26.7075
RightArm  -14.8353 -23.038 25.7573
RightForeArm  105.39 71.2859 142.301
RightHand  0.00363037 -1.35756 0.339057
LeftUpLeg  -0.599902 8.62762 -3.1098
LeftLeg  16.9518 7.26798 0.00946071
LeftFoot  -12.3284 0.102446 3.30915
LeftToes  3.24686e-010 -7.02549e-012 1.39809e-011
238
root  -52.2969 39.7123 -3.98285 -2.7207 46.5234 3.65912
RightUpLeg  -19.1413 -5.42918 -10.4317
RightLeg  54.255 -0.965598 -1.83576
RightFoot  -7.04592 -0.18287 3.6231
RightToes  2.96859e-009 0 -3.6325e-017
Spine  10.4932 -1.57033 -6.62028
Spine1  8.32977 -4.5322 6.28697
HEad  -11.2723 28.8863 -13.9921
LeftShoulder1  -0.0899219 3.7608 -28.8738
LeftArm  -4.1763 -1.13356 -41.6151
LeftForeArm  43.8401 -77.9234 -66.6001
LeftHand  0.00321367 4.4805 -4.22673
RightShoulder  -0.763739 -5.79379 26.7165
RightArm  -15.2721 -21.4293 26.6675
RightForeArm  104.309 71.4442 141.816
RightHand  -0.032628 -1.38921 -0.730183
LeftUpLeg  0.979687 7.66198 -3.66721
LeftLeg  16.2576 4.5021 -0.397886
LeftFoot  -12.9251 0.127173 3.56854
LeftToes  3.24686e-010 -7.02549e-012 1.39809e-011
239
root  -51.6186 39.7199 -3.66746 -2.52008 50.5622 3.83667
RightUpLeg  -21.0814 -4.84546 -8.59986
RightLeg  49.8826 -1.00444 -1.63216
RightFoot  -7.54837 -0.192687 4.2681
RightToes  2.96859e-009 0 -3.6325e-017
Spine  10.7449 -1.41187 -6.37384
Spine1  8.25004 -4.21292 6.31966
HEad  -10.7111 26.8184 -13.1173
LeftShoulder1  -0.063791 3.68418 -29.1281
LeftArm  -4.75829 -1.64226 -41.6327
LeftForeArm  46.6155 -78.1392 -68.9652
LeftHand  0.0203247 3.90753 -3.64361
RightShoulder  -0.868813 -6.09065 26.9905
RightArm  -15.979 -19.7541 26.8941
RightForeArm  104.616 71.5605 141.59
RightHand  -0.0112982 -1.81578 -0.0532122
LeftUpLeg  2.3895 6.78887 -4.17502
LeftLeg  15.5337 1.69005 -0.597174
LeftFoot  -13.3771 0.156265 4.27236
LeftToes  3.24686e-010 -7.02549e-012 1.39809e-011
240
root  -50.8909 39.7427 -3.2807 -2.94751 54.5175 3.6178
RightUpLeg  -21.4154 -4.25471 -7.05929
RightLeg  42.1357 -0.950129 -1.1991
RightFoot  -7.09831 -0.181993 3.60408
RightToes  2.96859e-009 0 -3.6325e-017
Spine  10.6308 -1.74023 -5.39297
Spine1  8.89333 -4.15268 5.40463
HEad  -9.60932 26.2357 -12.5039
LeftShoulder1  -0.0240284 3.57341 -28.4899
LeftArm  -5.89408 -1.68024 -42.1495
LeftForeArm  47.8959 -78.2308 -70.1268
LeftHand  0.000160236 4.70569 -5.01223
RightShoulder  -0.873968 -6.06826 27.4756
RightArm  -16.8142 -17.8525 27.7042
RightForeArm  103.665 71.8963 140.688
RightHand  -0.0158137 -1.85832 -0.167251
LeftUpLeg  4.40019 6.5978 -3.91323
LeftLeg  14.7633 -1.85475 -1.11223
LeftFoot  -13.8642 0.194629 5.03793
LeftToes  3.24686e-010 -7.02549e-012 1.39809e-011
241
root  -50.0958 39.7093 -2.842 -3.03094 58.0507 3.59247
RightUpLeg  -20.9307 -3.25522 -6.32666
RightLeg  31.7701 -1.08326 -0.933789
RightFoot  -6.84616 -0.200935 3.92816
RightToes  2.96859e-009 0 -3.6325e-017
Spine  9.62262 -2.13997 -4.75295
Spine1  10.2939 -4.31727 4.86061
HEad  -9.25263 24.3277 -11.0852
LeftShoulder1  -0.0444485 3.63172 -28.5745
LeftArm  -6.81581 -1.62331 -41.9124
LeftForeArm  49.6525 -78.363 -72.39
LeftHand  0.0125292 4.43391 -4.93655
RightShoulder  -0.743271 -5.71816 26.929
RightArm  -17.8323 -16.3584 29.6087
RightForeArm  103.613 72.1035 140.184
RightHand  -0.0349087 -1.7911 -0.806863
LeftUpLeg  6.25805 6.66354 -3.45994
LeftLeg  14.278 -5.38807 -1.74929
LeftFoot  -14.7112 0.255664 5.68279
LeftToes  3.24686e-010 -7.02549e-012 1.39809e-011
242
root  -49.2026 39.6558 -2.35886 -2.61615 61.5268 4.01105
RightUpLeg  -19.3542 -2.51161 -6.38505
RightLeg  19.5123 -0.966868 -0.703128
RightFoot  -6.44908 -0.240912 4.61315
RightToes  2.96859e-009 0 -3.6325e-017
Spine  9.36167 -2.27137 -4.05481
Spine1  10.2193 -4.16813 4.46816
HEad  -7.68107 22.7027 -10.5356
LeftShoulder1  -0.0781512 3.72777 -28.7545
LeftArm  -6.65167 -1.46713 -41.6015
LeftForeArm  50.9539 -78.4456 -73.9269
LeftHand  -0.0158195 4.98218 -4.51042
RightShoulder  -0.773673 -5.80958 26.924
RightArm  -18.6592 -15.9738 29.9973
RightForeArm  105.238 71.7631 141.205
RightHand  -0.0195008 -2.50515 -0.277183
LeftUpLeg  8.26168 6.41874 -3.29596
LeftLeg  13.5581 -8.5128 -1.96636
LeftFoot  -15.5342 0.319144 6.15669
LeftToes  3.24686e-010 -7.02549e-012 1.39809e-011
243
root  -48.2299 39.5701 -1.82879 -1.62018 64.7832 4.83887
RightUpLeg  -17.8572 -3.10571 -6.30264
RightLeg  8.20026 1.34099 -1.05244
RightFoot  -5.79083 -0.279429 4.95211
RightToes  2.96859e-009 0 -3.6325e-017
Spine  8.3044 -2.25565 -3.50304
Spine1  10.8977 -4.00284 4.33611
HEad  -7.22094 20.0564 -9.64932
LeftShoulder1  -0.07174 3.70948 -28.7424
LeftArm  -6.81682 -1.19966 -41.8939
LeftForeArm  52.1246 -78.5075 -74.9571
LeftHand  0.00460447 4.53787 -4.75433
RightShoulder  -0.766922 -5.81273 26.5827
RightArm  -19.3927 -16.3422 30.9708
RightForeArm  105.798 71.092 142.768
RightHand  -0.0393064 -1.16176 -0.837331
LeftUpLeg  10.2167 6.19728 -3.08495
LeftLeg  12.8114 -11.4859 -2.06218
LeftFoot  -16.3631 0.384732 6.53081
LeftToes  3.24686e-010 -7.02549e-012 1.39809e-011
244
root  -47.1252 39.4232 -1.29786 0.175781 67.8723 6.39258
RightUpLeg  -17.4533 -6.40726 -6.06487
RightLeg  1.64421 7.28296 -1.6222
RightFoot  -5.39742 -0.339817 5.83284
RightToes  2.96859e-009 0 -3.6325e-017
Spine  7.09868 -2.4185 -2.23951
Spine1  11.1048 -3.72533 3.22288
HEad  -6.63628 17.3029 -9.25349
LeftShoulder1  -0.0555673 3.66208 -28.9014
LeftArm  -6.3782 -0.512143 -41.2087
LeftForeArm  53.5501 -78.5829 -77.2618
LeftHand  0.01356 4.22494 -4.07252
RightShoulder  -0.740978 -5.71945 26.7869
RightArm  -19.7248 -17.5135 30.8208
RightForeArm  105.606 70.1884 144.592
RightHand  -0.107628 0.00023004 -2.3927
LeftUpLeg  12.2804 5.70851 -3.16968
LeftLeg  11.896 -14.1914 -1.85752
LeftFoot  -17.4065 0.459167 6.67161
LeftToes  3.24686e-010 -7.02549e-012 1.39809e-011
